<svg xmlns="http://www.w3.org/2000/svg" version="1.1" xmlns:xlink="http://www.w3.org/1999/xlink" xmlns:svgjs="http://svgjs.dev/svgjs" width="1500" height="937" viewBox="0 0 1500 937"><g transform="matrix(1,0,0,1,0,0)"><svg viewBox="0 0 512 320" data-background-color="#182524" preserveAspectRatio="xMidYMid meet" height="937" width="1500" xmlns="http://www.w3.org/2000/svg" xmlns:xlink="http://www.w3.org/1999/xlink"><g id="tight-bounds" transform="matrix(1,0,0,1,0,0)"><svg viewBox="0 0 512 320" height="320" width="512"><g><svg></svg></g><g><svg viewBox="0 0 512 320" height="320" width="512"><g><path d="M96 320l0-320 320 0 0 320zM413.174 317.174l0-314.348-314.348 0 0 314.348z" fill="#e2f1e6" fill-rule="nonzero" stroke="none" stroke-width="1" stroke-linecap="butt" stroke-linejoin="miter" stroke-miterlimit="10" stroke-dasharray="" stroke-dashoffset="0" font-family="none" font-weight="none" font-size="none" text-anchor="none" style="mix-blend-mode: normal" data-fill-palette-color="tertiary"></path></g><g transform="matrix(1,0,0,1,140.8,131.0791050815182)"><svg viewBox="0 0 230.4 57.84178983696357" height="57.84178983696357" width="230.4"><g><svg viewBox="0 0 230.4 57.84178983696357" height="57.84178983696357" width="230.4"><g><svg viewBox="0 0 230.4 57.84178983696357" height="57.84178983696357" width="230.4"><g><svg viewBox="0 0 230.4 57.84178983696357" height="57.84178983696357" width="230.4"><g id="textblocktransform"><svg viewBox="0 0 230.4 57.84178983696357" height="57.84178983696357" width="230.4" id="textblock"><g><svg viewBox="0 0 230.4 31.33229067327866" height="31.33229067327866" width="230.4"><g transform="matrix(1,0,0,1,0,0)"><svg width="230.4" viewBox="3.45 -35.35 262.13 35.65" height="31.33229067327866" data-palette-color="#e2f1e6"><path d="M3.45-34.9L10.45-34.9 10.45 0 3.45 0 3.45-34.9ZM47.2-34.95L47.2 0 40.2 0 24.35-23.95 24.35 0 17.35 0 17.35-34.95 24.35-34.95 40.2-10.95 40.2-34.95 47.2-34.95ZM52.25-34.9L77.84-34.9 77.84-29.25 68.55-29.25 68.55 0 61.55 0 61.55-29.25 52.25-29.25 52.25-34.9ZM103.19-29.25L89.94-29.25 89.94-20.5 101.69-20.5 101.69-14.95 89.94-14.95 89.94-5.7 103.19-5.7 103.19 0 82.94 0 82.94-34.95 103.19-34.95 103.19-29.25ZM141.89-24.4L133.84-24.4Q132.64-26.6 130.54-27.75 128.44-28.9 125.64-28.9L125.64-28.9Q122.54-28.9 120.14-27.5 117.74-26.1 116.39-23.5 115.04-20.9 115.04-17.5L115.04-17.5Q115.04-14 116.42-11.4 117.79-8.8 120.24-7.4 122.69-6 125.94-6L125.94-6Q129.94-6 132.49-8.13 135.04-10.25 135.84-14.05L135.84-14.05 123.84-14.05 123.84-19.4 142.74-19.4 142.74-13.3Q142.04-9.65 139.74-6.55 137.44-3.45 133.81-1.58 130.19 0.3 125.69 0.3L125.69 0.3Q120.64 0.3 116.56-1.98 112.49-4.25 110.17-8.3 107.84-12.35 107.84-17.5L107.84-17.5Q107.84-22.65 110.17-26.73 112.49-30.8 116.56-33.08 120.64-35.35 125.64-35.35L125.64-35.35Q131.54-35.35 135.89-32.48 140.24-29.6 141.89-24.4L141.89-24.4ZM168.19-29.25L154.94-29.25 154.94-20.5 166.69-20.5 166.69-14.95 154.94-14.95 154.94-5.7 168.19-5.7 168.19 0 147.94 0 147.94-34.95 168.19-34.95 168.19-29.25ZM204.39-34.95L204.39 0 197.39 0 181.53-23.95 181.53 0 174.53 0 174.53-34.95 181.53-34.95 197.39-10.95 197.39-34.95 204.39-34.95ZM234.98 0L232.68-6.65 218.78-6.65 216.48 0 209.13 0 221.68-34.95 229.83-34.95 242.38 0 234.98 0ZM220.68-12.25L230.78-12.25 225.73-26.85 220.68-12.25ZM254.08-34.9L254.08-5.55 265.58-5.55 265.58 0 247.08 0 247.08-34.9 254.08-34.9Z" opacity="1" transform="matrix(1,0,0,1,0,0)" fill="#e2f1e6" class="wordmark-text-0" data-fill-palette-color="primary" id="text-0"></path></svg></g></svg></g><g transform="matrix(1,0,0,1,100.36904332059319,38.72909252626359)"><svg viewBox="0 0 29.66191335881361 19.112697310699982" height="19.112697310699982" width="29.66191335881361"><g transform="matrix(1,0,0,1,0,0)"><svg width="29.66191335881361" viewBox="3 -38.5 59.75 38.5" height="19.112697310699982" data-palette-color="#e2f1e6"><path d="M6.65-31.2Q5.1-31.2 4.05-32.25 3-33.3 3-34.85L3-34.85Q3-36.4 4.05-37.45 5.1-38.5 6.65-38.5L6.65-38.5Q8.15-38.5 9.2-37.45 10.25-36.4 10.25-34.85L10.25-34.85Q10.25-33.3 9.2-32.25 8.15-31.2 6.65-31.2L6.65-31.2ZM3.75-27.55L9.45-27.55 9.45 0 3.75 0 3.75-27.55ZM30.85-28Q34.1-28 36.67-26.65 39.25-25.3 40.7-22.65 42.15-20 42.15-16.25L42.15-16.25 42.15 0 36.5 0 36.5-15.4Q36.5-19.1 34.65-21.08 32.8-23.05 29.6-23.05L29.6-23.05Q26.4-23.05 24.52-21.08 22.65-19.1 22.65-15.4L22.65-15.4 22.65 0 16.95 0 16.95-27.55 22.65-27.55 22.65-24.4Q24.05-26.1 26.22-27.05 28.4-28 30.85-28L30.85-28ZM62.75-22.9L56.05-22.9 56.05-7.65Q56.05-6.1 56.77-5.43 57.5-4.75 59.25-4.75L59.25-4.75 62.75-4.75 62.75 0 58.25 0Q54.4 0 52.35-1.8 50.3-3.6 50.3-7.65L50.3-7.65 50.3-22.9 47.05-22.9 47.05-27.55 50.3-27.55 50.3-34.4 56.05-34.4 56.05-27.55 62.75-27.55 62.75-22.9Z" opacity="1" transform="matrix(1,0,0,1,0,0)" fill="#e2f1e6" class="slogan-text-1" data-fill-palette-color="secondary" id="text-1"></path></svg></g></svg></g></svg></g></svg></g></svg></g></svg></g></svg></g></svg></g><defs></defs></svg><rect width="512" height="320" fill="none" stroke="none" visibility="hidden"></rect></g></svg></g></svg>